<svg width="40" height="31" viewBox="0 0 40 31" fill="none" xmlns="http://www.w3.org/2000/svg">
<g clip-path="url(#clip0_1256_356)">
<path d="M0 11.0051C0.0416667 10.8501 0.09375 10.6847 0.135417 10.5297C0.552083 9.10375 1.84375 8.09108 3.33333 8.07041C4.75 8.04975 6.16667 8.06008 7.59375 8.06008C8 8.06008 8.125 8.18408 8.125 8.59741C8.125 13.1957 8.125 17.7941 8.125 22.3924C8.125 22.8161 8 22.9297 7.5625 22.9401C6.21875 22.9401 4.88542 22.9401 3.54167 22.9401C1.77083 22.9297 0.46875 21.8861 0.0625 20.1811C0.0520833 20.1191 0.0208333 20.0571 0 20.0054C0 16.9984 0 14.0017 0 11.0051Z" fill="white"/>
<path d="M40 20.8527C39.7708 21.2041 39.6042 21.6174 39.3021 21.8861C38.5729 22.5474 37.5104 22.4647 36.7708 21.7311C35.6563 20.6461 34.5625 19.5404 33.4583 18.4451C33.3542 18.3521 33.2604 18.2487 33.0625 18.0731C32.9583 18.2177 32.8854 18.3624 32.7813 18.4761C31.7188 19.5404 30.6458 20.5944 29.5833 21.6587C28.7292 22.5061 27.5833 22.5474 26.8125 21.7621C26.0417 20.9974 26.0938 19.8711 26.9271 19.0341C28.0104 17.9491 29.0938 16.8744 30.1875 15.7997C30.2813 15.7067 30.3854 15.6344 30.5104 15.5311C30.375 15.3864 30.2813 15.2831 30.1771 15.1797C29.0521 14.0637 27.9271 12.9581 26.8125 11.8317C26.2813 11.2944 26.125 10.6537 26.3646 9.94074C26.5938 9.26907 27.0833 8.84541 27.7917 8.70074C28.4688 8.56641 29.0417 8.79374 29.5313 9.26907C30.625 10.3541 31.7188 11.4391 32.8229 12.5241C32.9271 12.6274 33.0313 12.7204 33.2188 12.8961C33.3542 12.7204 33.4688 12.5344 33.6146 12.3897C34.6354 11.3667 35.6771 10.3851 36.6667 9.34141C37.8958 8.04974 39.6875 8.76274 39.9688 10.0751C39.9688 10.0957 40 10.1061 40.0208 10.1267C40.0208 10.3851 40.0208 10.6434 40.0208 10.9017C39.8229 11.4597 39.4375 11.8834 39.0104 12.2864C38.1563 13.1131 37.3229 13.9604 36.4688 14.7974C36.25 15.0144 36.0313 15.2211 35.7917 15.4484C35.9167 15.5724 36 15.6757 36.0833 15.7584C37.0521 16.7194 38.0208 17.7011 39.0104 18.6517C39.4271 19.0547 39.8229 19.4784 40.0208 20.0364C40 20.3361 40 20.5944 40 20.8527Z" fill="white"/>
<path d="M23.75 15.531C23.75 19.9847 23.75 24.4384 23.75 28.892C23.75 30.2664 23.0104 31 21.6354 31C18.9896 30.9794 19.6979 31.2377 17.5729 29.6257C15.3854 27.9827 13.2083 26.319 11.0208 24.6657C10.75 24.459 10.625 24.242 10.625 23.8907C10.6354 18.29 10.6354 12.679 10.625 7.07836C10.625 6.73736 10.7396 6.53069 11 6.33435C13.5729 4.40202 16.1354 2.45936 18.6875 0.506355C19.1458 0.155022 19.625 -0.0206447 20.1979 -0.0103114C20.7187 0.0103553 21.2396 -0.0103114 21.7604 -0.0103114C22.9479 2.19231e-05 23.7396 0.775022 23.7396 1.95302C23.75 6.48936 23.75 11.0154 23.75 15.531Z" fill="white"/>
</g>
<defs>
<clipPath id="clip0_1256_356">
<rect width="40" height="31" fill="white"/>
</clipPath>
</defs>
</svg>
