<svg width="32.000000" height="32.000000" viewBox="0 0 32 32" fill="none" xmlns="http://www.w3.org/2000/svg" xmlns:xlink="http://www.w3.org/1999/xlink">
	<desc>
			Created with Pixso.
	</desc>
	<defs>
		<clipPath id="clip120_6918">
			<rect id="Icon / Disike" width="32.000000" height="32.000000" transform="translate(0.000000 -0.382812)" fill="white" fill-opacity="0"/>
		</clipPath>
	</defs>
	<g clip-path="url(#clip120_6918)">
		<path id="Shape" d="M5.9 20.55C6.12 20.8 6.38 20.99 6.67 21.12C6.97 21.26 7.29 21.33 7.61 21.33L12.95 21.33L12.95 22.85C12.95 23.86 13.35 24.83 14.06 25.54C14.78 26.26 15.75 26.66 16.76 26.66C16.9 26.66 17.04 26.62 17.16 26.55C17.28 26.47 17.38 26.36 17.44 26.24L21.04 19.04L25.14 19.04C25.54 19.04 25.93 18.88 26.22 18.59C26.5 18.31 26.66 17.92 26.66 17.52L26.66 9.14C26.66 8.73 26.5 8.34 26.22 8.06C25.93 7.77 25.54 7.61 25.14 7.61L8.76 7.61C8.2 7.61 7.66 7.81 7.25 8.18C6.83 8.55 6.56 9.06 6.49 9.61L5.35 18.75C5.31 19.08 5.33 19.4 5.43 19.71C5.53 20.02 5.69 20.31 5.9 20.55ZM25.14 17.52L21.33 17.52L21.33 9.14L25.14 9.14L25.14 17.52Z" fill="#54596A" fill-opacity="1.000000" fill-rule="evenodd"/>
	</g>
</svg>
