<svg width="24.000000" height="24.000000" viewBox="0 0 24 24" fill="none" xmlns="http://www.w3.org/2000/svg" xmlns:xlink="http://www.w3.org/1999/xlink">
	<desc>
			Created with Pixso.
	</desc>
	<defs>
		<clipPath id="clip171_4730">
			<rect id="Icon/Home" width="24.000000" height="24.000000" fill="white" fill-opacity="0"/>
		</clipPath>
	</defs>
	<g clip-path="url(#clip171_4730)">
		<path id="Shape" d="M20 10.92L20 18.62C20 18.97 19.85 19.31 19.6 19.56C19.35 19.81 19.02 19.95 18.66 19.95L15.33 19.95C14.97 19.95 14.64 19.81 14.39 19.56C14.14 19.31 14 18.97 14 18.62L14 15.29C14 15.11 13.92 14.94 13.8 14.82C13.67 14.69 13.51 14.62 13.33 14.62L10.66 14.62C10.48 14.62 10.32 14.69 10.19 14.82C10.07 14.94 10 15.11 10 15.29L10 18.62C10 18.97 9.85 19.31 9.6 19.56C9.35 19.81 9.02 19.95 8.66 19.95L5.33 19.95C4.97 19.95 4.64 19.81 4.39 19.56C4.14 19.31 4 18.97 4 18.62L4 10.92C4 10.73 4.03 10.55 4.11 10.38C4.18 10.21 4.29 10.06 4.43 9.93L11.09 3.64L11.1 3.64C11.35 3.41 11.67 3.29 12 3.29C12.33 3.29 12.65 3.41 12.9 3.64C12.9 3.64 12.9 3.64 12.9 3.64L19.57 9.93C19.71 10.06 19.81 10.21 19.89 10.38C19.96 10.55 20 10.73 20 10.92Z" fill="#8A90A4" fill-opacity="1.000000" fill-rule="nonzero"/>
	</g>
</svg>
