<svg width="24.000000" height="24.000000" viewBox="0 0 24 24" fill="none" xmlns="http://www.w3.org/2000/svg" xmlns:xlink="http://www.w3.org/1999/xlink">
	<desc>
			Created with Pixso.
	</desc>
	<defs>
		<clipPath id="clip171_4734">
			<rect id="Icon/Path" width="24.000000" height="24.000000" fill="white" fill-opacity="0"/>
		</clipPath>
	</defs>
	<g clip-path="url(#clip171_4734)">
		<path id="Shape" d="M17.53 15.27C16.99 15.27 16.46 15.46 16.03 15.79C15.59 16.12 15.29 16.59 15.15 17.12L7.69 17.12C7.03 17.12 6.41 16.86 5.95 16.4C5.48 15.94 5.23 15.31 5.23 14.66C5.23 14.01 5.48 13.38 5.95 12.92C6.41 12.46 7.03 12.2 7.69 12.2L15.07 12.2C15.89 12.2 16.67 11.87 17.25 11.3C17.83 10.72 18.15 9.94 18.15 9.12C18.15 8.3 17.83 7.52 17.25 6.94C16.67 6.37 15.89 6.04 15.07 6.04L7.69 6.04C7.52 6.04 7.37 6.11 7.25 6.22C7.14 6.34 7.07 6.5 7.07 6.66C7.07 6.82 7.14 6.98 7.25 7.09C7.37 7.21 7.52 7.27 7.69 7.27L15.07 7.27C15.56 7.27 16.03 7.47 16.38 7.82C16.72 8.16 16.92 8.63 16.92 9.12C16.92 9.61 16.72 10.08 16.38 10.42C16.03 10.77 15.56 10.96 15.07 10.96L7.69 10.96C6.71 10.96 5.77 11.35 5.08 12.05C4.38 12.74 3.99 13.68 3.99 14.66C3.99 15.64 4.38 16.58 5.08 17.27C5.77 17.96 6.71 18.35 7.69 18.35L15.15 18.35C15.26 18.8 15.5 19.2 15.84 19.52C16.17 19.83 16.58 20.05 17.04 20.15C17.49 20.24 17.95 20.2 18.39 20.05C18.82 19.89 19.2 19.61 19.48 19.25C19.76 18.88 19.93 18.44 19.98 17.99C20.03 17.53 19.95 17.07 19.74 16.65C19.54 16.24 19.23 15.89 18.84 15.65C18.45 15.4 17.99 15.27 17.53 15.27Z" fill="#8A90A4" fill-opacity="1.000000" fill-rule="nonzero"/>
	</g>
</svg>
