<svg width="24.000000" height="24.000000" viewBox="0 0 24 24" fill="none" xmlns="http://www.w3.org/2000/svg" xmlns:xlink="http://www.w3.org/1999/xlink">
	<desc>
			Created with Pixso.
	</desc>
	<defs>
		<clipPath id="clip13_4068">
			<rect id="Icon / Sorting/Icon/Call" width="24.000000" height="24.000000" fill="white" fill-opacity="0"/>
		</clipPath>
	</defs>
	<g clip-path="url(#clip13_4068)">
		<path id="Under" d="M19.22 14.75L15.46 13.06L15.45 13.06C15.25 12.98 15.04 12.94 14.82 12.96C14.61 12.98 14.41 13.05 14.23 13.17C14.21 13.18 14.19 13.2 14.17 13.21L12.22 14.87C10.99 14.28 9.72 13.01 9.12 11.8L10.78 9.82C10.8 9.8 10.81 9.78 10.83 9.76C10.94 9.58 11.01 9.38 11.03 9.17C11.05 8.96 11.02 8.75 10.93 8.55L10.93 8.54L9.24 4.76C9.13 4.51 8.94 4.3 8.7 4.16C8.46 4.03 8.18 3.97 7.91 4C6.82 4.15 5.83 4.68 5.11 5.5C4.39 6.32 3.99 7.38 4 8.48C4 14.83 9.16 20 15.52 20C16.61 20 17.67 19.6 18.49 18.88C19.31 18.16 19.84 17.17 19.99 16.08C20.02 15.81 19.96 15.53 19.83 15.29C19.69 15.05 19.48 14.86 19.22 14.75Z" fill="#EA3222" fill-opacity="1.000000" fill-rule="evenodd"/>
		<path id="radio" d="M13.62 5.11C13.64 5.03 13.68 4.95 13.73 4.89C13.78 4.82 13.84 4.76 13.91 4.72C13.99 4.68 14.07 4.65 14.15 4.64C14.23 4.63 14.32 4.64 14.4 4.66C15.59 4.97 16.67 5.59 17.54 6.46C18.4 7.32 19.02 8.41 19.33 9.59C19.36 9.67 19.36 9.76 19.35 9.84C19.34 9.92 19.31 10 19.27 10.08C19.23 10.15 19.17 10.21 19.1 10.26C19.04 10.32 18.96 10.35 18.88 10.37C18.83 10.39 18.77 10.4 18.72 10.4C18.57 10.4 18.44 10.35 18.33 10.26C18.21 10.18 18.13 10.06 18.1 9.92C17.84 8.95 17.34 8.07 16.63 7.36C15.92 6.65 15.04 6.15 14.07 5.89C13.99 5.87 13.91 5.83 13.85 5.78C13.78 5.73 13.72 5.67 13.68 5.6C13.64 5.52 13.61 5.44 13.6 5.36C13.59 5.28 13.6 5.19 13.62 5.11ZM13.43 8.46C14.53 8.75 15.24 9.46 15.54 10.56C15.57 10.7 15.65 10.82 15.77 10.91C15.88 10.99 16.01 11.03 16.16 11.03C16.21 11.03 16.27 11.03 16.32 11.01C16.4 10.99 16.48 10.96 16.54 10.91C16.61 10.85 16.67 10.79 16.71 10.72C16.75 10.64 16.78 10.56 16.79 10.48C16.8 10.4 16.8 10.31 16.77 10.23C16.36 8.7 15.29 7.63 13.76 7.22C13.68 7.19 13.59 7.19 13.51 7.2C13.43 7.21 13.35 7.24 13.28 7.28C13.2 7.32 13.14 7.38 13.09 7.45C13.04 7.51 13 7.59 12.98 7.67C12.96 7.75 12.95 7.83 12.96 7.92C12.97 8 13 8.08 13.04 8.16C13.08 8.23 13.14 8.29 13.21 8.34C13.27 8.39 13.35 8.43 13.43 8.46Z" fill="#FFFFFF" fill-opacity="1.000000" fill-rule="nonzero"/>
	</g>
</svg>
