<svg width="24.000000" height="24.000000" viewBox="0 0 24 24" fill="none" xmlns="http://www.w3.org/2000/svg" xmlns:xlink="http://www.w3.org/1999/xlink">
	<desc>
			Created with Pixso.
	</desc>
	<defs>
		<clipPath id="clip171_4752">
			<rect id="Icon/Catalogue" width="24.000000" height="24.000000" fill="white" fill-opacity="0"/>
		</clipPath>
	</defs>
	<g clip-path="url(#clip171_4752)">
		<path id="Shape" d="M8.0647 3.15234L5.9292 3.15234C5.62378 3.15234 5.37793 3.39844 5.37793 3.70312L5.37793 4.94922L4.75122 4.94922C4.4458 4.94922 4.2002 5.19531 4.2002 5.5L4.2002 6.58203C4.2002 6.88672 4.4458 7.13281 4.75122 7.13281L5.37793 7.13281L5.37793 8.03125L8.61572 8.03125L8.61572 3.70312C8.61572 3.39844 8.36694 3.15234 8.0647 3.15234ZM14.1592 5.69531L12.5969 5.69531L12.5969 5.06641C12.5969 4.76562 12.3513 4.51562 12.0457 4.51562L10.9624 4.51562C10.6599 4.51562 10.4111 4.76562 10.4111 5.06641L10.4111 5.69531L9.08838 5.69531L9.08838 8.03125L14.3953 8.03125L14.3953 5.92969C14.3953 5.80078 14.2883 5.69531 14.1592 5.69531ZM12.1245 5.69531L10.8835 5.69531L10.8835 5.06641C10.8835 5.02734 10.9182 4.98828 10.9622 4.98828L12.0457 4.98828C12.0898 4.98828 12.1245 5.02734 12.1245 5.06641L12.1245 5.69531ZM5.37793 6.66016L4.75122 6.66016C4.70728 6.66016 4.67261 6.625 4.67261 6.58203L4.67261 5.5C4.67261 5.45703 4.70728 5.42188 4.75122 5.42188L5.37793 5.42188L5.37793 6.66016ZM21.9321 12.0703L16.4268 12.0703L15.4915 9.0625C15.3875 8.72656 15.085 8.50391 14.7388 8.50391L3.79077 8.50391C3.35596 8.50391 3.00024 8.85547 3.00024 9.29297L3.00024 13.3047L23 13.3047L23 13.1406C23 12.5508 22.5212 12.0703 21.9321 12.0703ZM6.86157 12.1719L5.03174 12.1719C4.85522 12.1719 4.71362 12.0312 4.71362 11.8555L4.71362 10.4297C4.71362 10.25 4.85522 10.1094 5.03174 10.1094L6.86157 10.1094L6.86157 12.1719ZM9.48193 11.8555C9.48193 12.0312 9.34033 12.1719 9.16382 12.1719L7.33398 12.1719L7.33398 10.1094L9.16382 10.1094C9.34033 10.1094 9.48193 10.25 9.48193 10.4297L9.48193 11.8555ZM11.7498 11.6875C11.5764 11.6875 11.4316 11.5469 11.4316 11.3711L11.4316 10.4297C11.4316 10.25 11.5764 10.1094 11.7498 10.1094L15.3213 10.1094L15.8127 11.6875L11.7498 11.6875ZM3.00024 13.7773L3.00024 17.3398C3.00024 17.4727 3.10718 17.5781 3.23633 17.5781L4.31665 17.5781C4.40479 17.5781 4.48682 17.5273 4.52759 17.4492L5.33716 15.8398C5.43799 15.6406 5.64575 15.5117 5.86938 15.5117L8.46777 15.5117C8.69141 15.5117 8.89941 15.6406 9 15.8398L9.8064 17.4492C9.84741 17.5273 9.9292 17.5781 10.0173 17.5781L16.1338 17.5781C16.2222 17.5781 16.304 17.5273 16.345 17.4492L17.1543 15.8398C17.2551 15.6406 17.4629 15.5117 17.6865 15.5117L20.2849 15.5117C20.5056 15.5117 20.7166 15.6406 20.8142 15.8398L21.6235 17.4492C21.6646 17.5273 21.7466 17.5781 21.8347 17.5781L21.9321 17.5781C22.5212 17.5781 23 17.0977 23 16.5078L23 13.7773L3.00024 13.7773ZM22.7637 19.375L20.1794 19.375C20.6094 19.0117 20.8835 18.4688 20.8835 17.8594C20.8835 16.7656 19.9922 15.8711 18.896 15.8711C17.8 15.8711 16.9055 16.7656 16.9055 17.8594C16.9055 18.4688 17.1804 19.0117 17.6113 19.375L8.38403 19.375C8.81445 19.0117 9.08838 18.4688 9.08838 17.8594C9.08838 16.7656 8.19385 15.8711 7.09766 15.8711C6.00171 15.8711 5.11035 16.7656 5.11035 17.8594C5.11035 18.4688 5.3833 19.0117 5.81274 19.375L3.23633 19.375C3.10571 19.375 3 19.4805 3 19.6133C3 19.7422 3.10571 19.8477 3.23633 19.8477L22.7637 19.8477C22.894 19.8477 22.9998 19.7422 22.9998 19.6133C22.9998 19.4805 22.894 19.375 22.7637 19.375ZM18.8955 16.8906C19.4307 16.8906 19.866 17.3242 19.866 17.8594C19.866 18.3945 19.4307 18.832 18.8955 18.832C18.3604 18.832 17.9248 18.3945 17.9248 17.8594C17.9248 17.3242 18.3604 16.8906 18.8955 16.8906ZM7.09839 18.832C6.56323 18.832 6.12817 18.3945 6.12817 17.8594C6.12817 17.3242 6.56323 16.8906 7.09839 16.8906C7.63354 16.8906 8.06909 17.3242 8.06909 17.8594C8.06909 18.3945 7.63354 18.832 7.09839 18.832ZM7.09839 17.3633C6.82373 17.3633 6.60059 17.5859 6.60059 17.8594C6.60059 18.1328 6.82373 18.3594 7.09839 18.3594C7.37305 18.3594 7.59668 18.1328 7.59668 17.8594C7.59668 17.5859 7.37305 17.3633 7.09839 17.3633ZM18.8955 17.3633C18.6208 17.3633 18.3972 17.5859 18.3972 17.8594C18.3972 18.1328 18.6208 18.3594 18.8955 18.3594C19.1702 18.3594 19.3936 18.1328 19.3936 17.8594C19.3936 17.5859 19.1702 17.3633 18.8955 17.3633Z" clip-rule="evenodd" fill="#8A90A4" fill-opacity="1.000000" fill-rule="evenodd"/>
	</g>
</svg>
