<svg width="24.000000" height="24.000000" viewBox="0 0 24 24" fill="none" xmlns="http://www.w3.org/2000/svg" xmlns:xlink="http://www.w3.org/1999/xlink">
	<g clip-path="url(#clip406_3586)">
		<rect id="Shape" x="4.000000" y="4.000000" rx="2.000000" width="16.000000" height="16.000000" fill="#00AFFF" fill-opacity="1.000000"/>
		<path id="Shape" d="M16.79 10.21L11.26 15.79C11.19 15.86 11.12 15.91 11.03 15.94C10.95 15.98 10.86 16 10.77 16C10.68 16 10.59 15.98 10.51 15.94C10.42 15.91 10.35 15.86 10.28 15.79L7.2 12.66C7.07 12.53 7 12.35 7 12.17C7 11.99 7.07 11.81 7.2 11.68L8.23 10.63C8.36 10.5 8.53 10.43 8.72 10.43C8.9 10.43 9.07 10.5 9.2 10.63L10.78 12.17L10.79 12.17L14.78 8.2C14.91 8.07 15.09 8 15.27 8C15.45 8 15.63 8.07 15.76 8.2L16.79 9.22C16.86 9.29 16.91 9.36 16.94 9.45C16.98 9.53 16.99 9.62 17 9.72C17 9.81 16.98 9.9 16.94 9.98C16.91 10.07 16.86 10.14 16.79 10.21Z" fill="#FFFFFF" fill-opacity="1.000000" fill-rule="evenodd"/>
	</g>
</svg>
