<svg width="24.000000" height="24.000000" viewBox="0 0 24 24" fill="none" xmlns="http://www.w3.org/2000/svg" xmlns:xlink="http://www.w3.org/1999/xlink">
	<desc>
			Created with Pixso.
	</desc>
	<defs>
		<clipPath id="clip13_6099">
			<rect id="Icon/Check" width="24.000000" height="24.000000" fill="white" fill-opacity="0"/>
		</clipPath>
	</defs>
	<g clip-path="url(#clip13_6099)">
		<path id="Shape" d="M20.05 9.54L11.19 18.39C11.09 18.49 10.97 18.57 10.83 18.63C10.7 18.68 10.56 18.71 10.41 18.71C10.27 18.71 10.12 18.68 9.99 18.63C9.86 18.57 9.73 18.49 9.63 18.39L4.69 13.43C4.49 13.22 4.37 12.94 4.37 12.65C4.37 12.35 4.49 12.07 4.69 11.87L6.35 10.21C6.56 10.01 6.83 9.89 7.13 9.89C7.42 9.89 7.7 10 7.91 10.21L10.43 12.64L10.44 12.65L16.83 6.35C17.04 6.14 17.32 6.03 17.61 6.03C17.9 6.03 18.18 6.14 18.39 6.35L20.04 7.97C20.15 8.07 20.23 8.2 20.29 8.33C20.34 8.46 20.37 8.61 20.37 8.75C20.37 8.9 20.34 9.04 20.29 9.18C20.23 9.31 20.15 9.43 20.05 9.54Z" fill="#FFFFFF" fill-opacity="1.000000" fill-rule="nonzero"/>
	</g>
</svg>
