<svg width="24.000000" height="24.000000" viewBox="0 0 24 24" fill="none" xmlns="http://www.w3.org/2000/svg" xmlns:xlink="http://www.w3.org/1999/xlink">
	<desc>
			Created with Pixso.
	</desc>
	<defs>
		<clipPath id="clip8_7177">
			<rect id="Icon/Facebook" width="24.000000" height="24.000000" fill="white" fill-opacity="0"/>
		</clipPath>
	</defs>
	<g clip-path="url(#clip8_7177)">
		<path id="Shape" d="M20 11.99C19.99 13.94 19.28 15.83 17.98 17.29C16.68 18.76 14.89 19.7 12.95 19.93C12.91 19.94 12.87 19.93 12.82 19.92C12.78 19.91 12.74 19.88 12.71 19.86C12.68 19.83 12.65 19.79 12.64 19.75C12.62 19.71 12.61 19.67 12.61 19.62L12.61 13.84L14.46 13.84C14.54 13.84 14.62 13.82 14.7 13.78C14.78 13.75 14.85 13.7 14.91 13.64C14.96 13.58 15.01 13.51 15.04 13.43C15.07 13.35 15.08 13.26 15.07 13.18C15.06 13.02 14.99 12.87 14.87 12.77C14.75 12.66 14.6 12.6 14.44 12.6L12.61 12.6L12.61 10.76C12.61 10.43 12.74 10.12 12.97 9.89C13.2 9.66 13.51 9.53 13.84 9.53L15.07 9.53C15.16 9.53 15.24 9.51 15.32 9.48C15.39 9.44 15.46 9.39 15.52 9.33C15.58 9.27 15.62 9.2 15.65 9.12C15.68 9.04 15.69 8.96 15.69 8.87C15.67 8.71 15.6 8.57 15.48 8.46C15.36 8.35 15.21 8.29 15.05 8.3L13.84 8.3C13.19 8.3 12.56 8.56 12.1 9.02C11.64 9.48 11.38 10.11 11.38 10.76L11.38 12.6L9.53 12.6C9.45 12.6 9.37 12.62 9.29 12.66C9.21 12.69 9.14 12.74 9.08 12.8C9.03 12.86 8.98 12.93 8.95 13.01C8.92 13.09 8.91 13.18 8.92 13.26C8.93 13.42 9 13.57 9.12 13.67C9.24 13.78 9.4 13.84 9.55 13.84L11.38 13.84L11.38 19.63C11.38 19.67 11.37 19.71 11.35 19.75C11.34 19.79 11.31 19.83 11.28 19.86C11.25 19.89 11.21 19.91 11.17 19.92C11.12 19.93 11.08 19.94 11.04 19.93C9.05 19.69 7.22 18.71 5.91 17.18C4.61 15.66 3.93 13.69 4 11.69C4.15 7.53 7.52 4.16 11.68 4C12.75 3.95 13.83 4.13 14.83 4.51C15.84 4.9 16.76 5.48 17.53 6.22C18.31 6.97 18.93 7.87 19.35 8.86C19.78 9.85 19.99 10.91 20 11.99Z" fill="#00AFFF" fill-opacity="1.000000" fill-rule="nonzero"/>
	</g>
</svg>
