<svg width="32.000000" height="32.000000" viewBox="0 0 32 32" fill="none" xmlns="http://www.w3.org/2000/svg" xmlns:xlink="http://www.w3.org/1999/xlink">
	<desc>
			Created with Pixso.
	</desc>
	<defs>
		<clipPath id="clip120_6886">
			<rect id="Icon / Heart" width="32.000000" height="32.000000" transform="translate(0.000000 -0.382812)" fill="white" fill-opacity="0"/>
		</clipPath>
	</defs>
	<g clip-path="url(#clip120_6886)">
		<path id="Shape" d="M26.66 13.14C26.66 13.87 26.52 14.59 26.24 15.26C25.97 15.93 25.56 16.54 25.04 17.05L16.54 25.68C16.47 25.75 16.38 25.81 16.29 25.84C16.2 25.88 16.1 25.9 16 25.9C15.89 25.9 15.79 25.88 15.7 25.84C15.61 25.81 15.52 25.75 15.45 25.68L6.95 17.05C5.91 16.01 5.33 14.61 5.33 13.14C5.33 11.68 5.91 10.27 6.94 9.23C7.98 8.2 9.38 7.61 10.85 7.61C12.32 7.61 13.72 8.19 14.76 9.23L16 10.39L17.24 9.22C18.02 8.45 19 7.93 20.07 7.72C21.14 7.51 22.25 7.62 23.26 8.04C24.27 8.46 25.13 9.17 25.73 10.08C26.34 10.98 26.66 12.05 26.66 13.14Z" fill="#EA3222" fill-opacity="1.000000" fill-rule="evenodd"/>
	</g>
</svg>
