<svg width="24.000000" height="24.000000" viewBox="0 0 24 24" fill="none" xmlns="http://www.w3.org/2000/svg" xmlns:xlink="http://www.w3.org/1999/xlink">
	<desc>
			Created with Pixso.
	</desc>
	<defs>
		<clipPath id="clip1360_8585">
			<rect id="Icon" width="24.000000" height="24.000000" fill="white" fill-opacity="0"/>
		</clipPath>
	</defs>
	<g clip-path="url(#clip1360_8585)">
		<path id="Shape" d="M5 9L7.20801 9C7.59381 9.88281 8.47485 10.5 9.5 10.5C10.5251 10.5 11.4062 9.88281 11.792 9L19 9C19.5523 9 20 8.55225 20 8C20 7.44775 19.5523 7 19 7L11.792 7C11.4062 6.11719 10.5251 5.5 9.5 5.5C8.47485 5.5 7.59381 6.11719 7.20801 7L5 7C4.44769 7 4 7.44775 4 8C4 8.55225 4.44769 9 5 9ZM12.208 17L5 17C4.44769 17 4 16.5522 4 16C4 15.4478 4.44769 15 5 15L12.208 15C12.5938 14.1172 13.4749 13.5 14.5 13.5C15.5251 13.5 16.4062 14.1172 16.792 15L19 15C19.5523 15 20 15.4478 20 16C20 16.5522 19.5523 17 19 17L16.792 17C16.4062 17.8828 15.5251 18.5 14.5 18.5C13.4749 18.5 12.5938 17.8828 12.208 17Z" clip-rule="evenodd" fill="#21242F" fill-opacity="1.000000" fill-rule="evenodd"/>
	</g>
</svg>
