<svg width="24.000000" height="24.000000" viewBox="0 0 24 24" fill="none" xmlns="http://www.w3.org/2000/svg" xmlns:xlink="http://www.w3.org/1999/xlink">
	<desc>
			Created with Pixso.
	</desc>
	<defs>
		<clipPath id="clip1089_6247">
			<rect id="Icon/Info" width="24.000000" height="24.000000" fill="white" fill-opacity="0"/>
		</clipPath>
	</defs>
	<rect id="Icon/Info" width="24.000000" height="24.000000" fill="#FFFFFF" fill-opacity="0"/>
	<g clip-path="url(#clip1089_6247)">
		<path id="Shape" d="M4 12C4 7.58179 7.58167 4 12 4C16.4183 4 20 7.58179 20 12C20 16.4182 16.4183 20 12 20C7.58167 20 4 16.4182 4 12ZM10.5 8.5C10.5 7.67163 11.1716 7 12 7C12.8284 7 13.5 7.67163 13.5 8.5C13.5 9.32837 12.8284 10 12 10C11.1716 10 10.5 9.32837 10.5 8.5ZM12.8827 11.0762C12.6989 11 12.4659 11 12 11C11.5341 11 11.3011 11 11.1173 11.0762C10.8723 11.1777 10.6776 11.3723 10.5762 11.6174C10.5 11.801 10.5 12.0342 10.5 12.5L10.5 15.5C10.5 15.9658 10.5 16.199 10.5762 16.3826C10.6776 16.6277 10.8723 16.8223 11.1173 16.9238C11.3011 17 11.5341 17 12 17C12.4659 17 12.6989 17 12.8827 16.9238C13.1277 16.8223 13.3224 16.6277 13.4238 16.3826C13.5 16.199 13.5 15.9658 13.5 15.5L13.5 12.5C13.5 12.0342 13.5 11.801 13.4238 11.6174C13.3224 11.3723 13.1277 11.1777 12.8827 11.0762Z" clip-rule="evenodd" fill="#8A90A4" fill-opacity="1.000000" fill-rule="evenodd"/>
	</g>
</svg>
