<svg width="24.000000" height="24.000000" viewBox="0 0 24 24" fill="none" xmlns="http://www.w3.org/2000/svg" xmlns:xlink="http://www.w3.org/1999/xlink">
	<desc>
			Created with Pixso.
	</desc>
	<defs>
		<clipPath id="clip8_7183">
			<rect id="Icon / LinkedIn" width="24.000000" height="24.000000" fill="white" fill-opacity="0"/>
		</clipPath>
	</defs>
	<rect id="Icon / LinkedIn" width="24.000000" height="24.000000" fill="#FFFFFF" fill-opacity="0"/>
	<g clip-path="url(#clip8_7183)">
		<path id="Shape" d="M18.76 4L5.23 4C4.9 4 4.59 4.12 4.36 4.36C4.12 4.59 4 4.9 4 5.23L4 18.76C4 19.09 4.12 19.4 4.36 19.63C4.59 19.87 4.9 20 5.23 20L18.76 20C19.09 20 19.4 19.87 19.63 19.63C19.87 19.4 20 19.09 20 18.76L20 5.23C20 4.9 19.87 4.59 19.63 4.36C19.4 4.12 19.09 4 18.76 4ZM9.53 15.69C9.53 15.85 9.47 16.01 9.35 16.12C9.24 16.24 9.08 16.3 8.92 16.3C8.75 16.3 8.6 16.24 8.48 16.12C8.37 16.01 8.3 15.85 8.3 15.69L8.3 10.76C8.3 10.6 8.37 10.44 8.48 10.33C8.6 10.21 8.75 10.15 8.92 10.15C9.08 10.15 9.24 10.21 9.35 10.33C9.47 10.44 9.53 10.6 9.53 10.76L9.53 15.69ZM8.92 9.53C8.74 9.53 8.56 9.48 8.41 9.38C8.25 9.28 8.14 9.13 8.07 8.96C8 8.79 7.98 8.61 8.01 8.43C8.05 8.25 8.14 8.09 8.27 7.96C8.39 7.83 8.56 7.74 8.74 7.71C8.92 7.67 9.1 7.69 9.27 7.76C9.44 7.83 9.58 7.95 9.69 8.1C9.79 8.25 9.84 8.43 9.84 8.61C9.84 8.86 9.74 9.09 9.57 9.26C9.4 9.44 9.16 9.53 8.92 9.53ZM16.3 15.69C16.3 15.85 16.24 16.01 16.12 16.12C16.01 16.24 15.85 16.3 15.69 16.3C15.52 16.3 15.37 16.24 15.25 16.12C15.14 16.01 15.07 15.85 15.07 15.69L15.07 12.92C15.07 12.51 14.91 12.12 14.62 11.83C14.33 11.54 13.94 11.38 13.53 11.38C13.13 11.38 12.73 11.54 12.45 11.83C12.16 12.12 12 12.51 12 12.92L12 15.69C12 15.85 11.93 16.01 11.81 16.12C11.7 16.24 11.54 16.3 11.38 16.3C11.22 16.3 11.06 16.24 10.94 16.12C10.83 16.01 10.76 15.85 10.76 15.69L10.76 10.76C10.77 10.61 10.82 10.47 10.92 10.36C11.02 10.24 11.16 10.17 11.31 10.16C11.46 10.14 11.61 10.18 11.73 10.26C11.86 10.35 11.94 10.48 11.98 10.63C12.4 10.34 12.88 10.18 13.38 10.15C13.89 10.13 14.39 10.24 14.83 10.47C15.27 10.71 15.65 11.06 15.91 11.49C16.17 11.92 16.3 12.42 16.3 12.92L16.3 15.69Z" fill="#00AFFF" fill-opacity="1.000000" fill-rule="evenodd"/>
	</g>
</svg>
