<svg width="32.000000" height="32.000000" viewBox="0 0 32 32" fill="none" xmlns="http://www.w3.org/2000/svg" xmlns:xlink="http://www.w3.org/1999/xlink">
	<desc>
			Created with Pixso.
	</desc>
	<defs>
		<clipPath id="clip120_6901">
			<rect id="Icon / Like" width="32.000000" height="32.000000" transform="translate(0.000000 -0.382812)" fill="white" fill-opacity="0"/>
		</clipPath>
	</defs>
	<g clip-path="url(#clip120_6901)">
		<path id="Shape" d="M26.09 11.05C25.87 10.81 25.61 10.61 25.32 10.48C25.02 10.35 24.7 10.28 24.38 10.28L19.04 10.28L19.04 8.75C19.04 7.74 18.64 6.78 17.93 6.06C17.21 5.35 16.24 4.95 15.23 4.95C15.09 4.95 14.95 4.98 14.83 5.06C14.71 5.13 14.61 5.24 14.55 5.37L10.95 12.56L6.85 12.56C6.45 12.56 6.06 12.72 5.77 13.01C5.49 13.3 5.33 13.68 5.33 14.09L5.33 22.47C5.33 22.87 5.49 23.26 5.77 23.55C6.06 23.83 6.45 23.99 6.85 23.99L23.23 23.99C23.79 23.99 24.33 23.79 24.74 23.42C25.16 23.05 25.43 22.54 25.5 21.99L26.64 12.85C26.68 12.53 26.66 12.2 26.56 11.89C26.46 11.58 26.3 11.29 26.09 11.05ZM6.85 14.09L10.66 14.09L10.66 22.47L6.85 22.47L6.85 14.09Z" fill="#00AFFF" fill-opacity="1.000000" fill-rule="evenodd"/>
	</g>
</svg>
