<svg width="24.000000" height="24.000000" viewBox="0 0 24 24" fill="none" xmlns="http://www.w3.org/2000/svg" xmlns:xlink="http://www.w3.org/1999/xlink">
	<desc>
			Created with Pixso.
	</desc>
	<defs>
		<clipPath id="clip2365_5032">
			<rect id="Icon / Lock" width="24.000000" height="24.000000" fill="white" fill-opacity="0"/>
		</clipPath>
	</defs>
	<rect id="Icon / Lock" width="24.000000" height="24.000000" fill="#FFFFFF" fill-opacity="0"/>
	<g clip-path="url(#clip2365_5032)">
		<path id="Shape" d="M17.92 8.2L15.55 8.2L15.55 6.43C15.55 5.48 15.18 4.58 14.51 3.91C13.84 3.25 12.94 2.87 12 2.87C11.05 2.87 10.15 3.25 9.48 3.91C8.81 4.58 8.44 5.48 8.44 6.43L8.44 8.2L6.07 8.2C5.75 8.2 5.45 8.33 5.23 8.55C5.01 8.77 4.88 9.07 4.88 9.39L4.88 17.68C4.88 18 5.01 18.3 5.23 18.52C5.45 18.75 5.75 18.87 6.07 18.87L17.92 18.87C18.24 18.87 18.54 18.75 18.76 18.52C18.98 18.3 19.11 18 19.11 17.68L19.11 9.39C19.11 9.07 18.98 8.77 18.76 8.55C18.54 8.33 18.24 8.2 17.92 8.2ZM12.59 14.03L12.59 15.91C12.59 16.06 12.52 16.21 12.41 16.33C12.3 16.44 12.15 16.5 12 16.5C11.84 16.5 11.69 16.44 11.58 16.33C11.46 16.21 11.4 16.06 11.4 15.91L11.4 14.03C11.01 13.89 10.67 13.61 10.46 13.25C10.25 12.89 10.17 12.46 10.24 12.05C10.31 11.64 10.53 11.26 10.85 10.99C11.17 10.72 11.58 10.57 12 10.57C12.41 10.57 12.82 10.72 13.14 10.99C13.46 11.26 13.68 11.64 13.75 12.05C13.82 12.46 13.74 12.89 13.53 13.25C13.32 13.61 12.98 13.89 12.59 14.03ZM14.37 8.2L9.62 8.2L9.62 6.43C9.62 5.8 9.87 5.19 10.32 4.75C10.76 4.3 11.37 4.06 12 4.06C12.62 4.06 13.23 4.3 13.67 4.75C14.12 5.19 14.37 5.8 14.37 6.43L14.37 8.2Z" fill="#FFFFFF" fill-opacity="1.000000" fill-rule="evenodd"/>
	</g>
</svg>
