<svg width="24.000000" height="24.000000" viewBox="0 0 24 24" fill="none" xmlns="http://www.w3.org/2000/svg" xmlns:xlink="http://www.w3.org/1999/xlink">
	<desc>
			Created with Pixso.
	</desc>
	<defs>
		<clipPath id="clip1153_1368">
			<rect id="Icon/Call 2" width="24.000000" height="24.000000" transform="translate(0.000000 -0.765625)" fill="white" fill-opacity="0"/>
		</clipPath>
	</defs>
	<g clip-path="url(#clip1153_1368)">
		<path id="Shape" d="M20.36 14.94C20.22 16.02 19.69 17.02 18.86 17.74C18.04 18.46 16.98 18.86 15.89 18.85C9.54 18.85 4.37 13.69 4.37 7.33C4.37 6.24 4.76 5.18 5.48 4.36C6.2 3.54 7.2 3.01 8.28 2.86C8.56 2.83 8.84 2.89 9.07 3.02C9.31 3.16 9.5 3.37 9.61 3.63L11.3 7.4L11.3 7.41C11.39 7.6 11.42 7.81 11.4 8.02C11.39 8.23 11.32 8.44 11.2 8.61C11.19 8.64 11.17 8.66 11.16 8.68L9.49 10.65C10.09 11.87 11.36 13.13 12.6 13.73L14.54 12.07C14.56 12.06 14.58 12.04 14.6 12.03C14.78 11.91 14.98 11.84 15.2 11.82C15.41 11.8 15.62 11.83 15.82 11.92L15.83 11.92L19.6 13.61C19.85 13.72 20.06 13.91 20.2 14.15C20.34 14.39 20.39 14.67 20.36 14.94Z" fill="#8A90A4" fill-opacity="1.000000" fill-rule="nonzero"/>
	</g>
</svg>
