<svg width="24.000000" height="24.000000" viewBox="0 0 24 24" fill="none" xmlns="http://www.w3.org/2000/svg" xmlns:xlink="http://www.w3.org/1999/xlink">
	<desc>
			Created with Pixso.
	</desc>
	<defs>
		<clipPath id="clip2365_5029">
			<rect id="Icon/Plus" width="24.000000" height="24.000000" fill="white" fill-opacity="0"/>
		</clipPath>
	</defs>
	<rect id="Icon/Plus" width="24.000000" height="24.000000" fill="#FFFFFF" fill-opacity="0"/>
	<g clip-path="url(#clip2365_5029)">
		<path id="Shape" d="M11 5L13 5C13.5522 5 14 5.44727 14 6L14 10.5L18.5 10.5C19.0522 10.5 19.5 10.9473 19.5 11.5L19.5 13.5C19.5 14.0527 19.0522 14.5 18.5 14.5L14 14.5L14 19C14 19.5527 13.5522 20 13 20L11 20C10.4478 20 10 19.5527 10 19L10 14.5L5.5 14.5C4.94775 14.5 4.5 14.0527 4.5 13.5L4.5 11.5C4.5 10.9473 4.94775 10.5 5.5 10.5L10 10.5L10 6C10 5.44727 10.4478 5 11 5Z" clip-rule="evenodd" fill="#11B684" fill-opacity="1.000000" fill-rule="evenodd"/>
	</g>
</svg>
