<svg width="24.000000" height="24.000000" viewBox="0 0 24 24" fill="none" xmlns="http://www.w3.org/2000/svg" xmlns:xlink="http://www.w3.org/1999/xlink">
	<desc>
			Created with Pixso.
	</desc>
	<defs>
		<clipPath id="clip171_4726">
			<rect id="Icon/Question" width="24.000000" height="24.000000" fill="white" fill-opacity="0"/>
		</clipPath>
	</defs>
	<g clip-path="url(#clip171_4726)">
		<path id="Shape" d="M12 4C10.41 4 8.87 4.46 7.55 5.34C6.23 6.22 5.21 7.47 4.6 8.93C4 10.39 3.84 12 4.15 13.56C4.46 15.11 5.22 16.53 6.34 17.65C7.46 18.77 8.88 19.53 10.43 19.84C11.99 20.15 13.59 19.99 15.06 19.39C16.52 18.78 17.77 17.76 18.65 16.44C19.53 15.12 20 13.58 20 12C19.99 9.87 19.15 7.84 17.65 6.34C16.15 4.84 14.12 4 12 4ZM12 16.92C11.81 16.92 11.63 16.86 11.48 16.76C11.33 16.66 11.21 16.52 11.14 16.35C11.07 16.18 11.05 16 11.09 15.82C11.13 15.64 11.21 15.47 11.34 15.34C11.47 15.21 11.64 15.12 11.81 15.09C11.99 15.05 12.18 15.07 12.35 15.14C12.52 15.21 12.66 15.33 12.76 15.48C12.86 15.64 12.92 15.81 12.92 16C12.92 16.24 12.82 16.48 12.65 16.65C12.47 16.82 12.24 16.92 12 16.92ZM12.61 13.17L12.61 13.23C12.61 13.39 12.55 13.55 12.43 13.66C12.31 13.78 12.16 13.84 12 13.84C11.83 13.84 11.68 13.78 11.56 13.66C11.44 13.55 11.38 13.39 11.38 13.23L11.38 12.61C11.38 12.45 11.44 12.29 11.56 12.17C11.68 12.06 11.83 12 12 12C13.01 12 13.84 11.3 13.84 10.46C13.84 9.61 13.01 8.92 12 8.92C10.98 8.92 10.15 9.61 10.15 10.46L10.15 10.76C10.15 10.93 10.08 11.08 9.97 11.2C9.85 11.32 9.7 11.38 9.53 11.38C9.37 11.38 9.21 11.32 9.1 11.2C8.98 11.08 8.92 10.93 8.92 10.76L8.92 10.46C8.92 8.93 10.3 7.69 12 7.69C13.69 7.69 15.07 8.93 15.07 10.46C15.07 11.79 14.01 12.91 12.61 13.17Z" fill="#8A90A4" fill-opacity="1.000000" fill-rule="nonzero"/>
	</g>
</svg>
