<svg width="24.000000" height="24.000000" viewBox="0 0 24 24" fill="none" xmlns="http://www.w3.org/2000/svg" xmlns:xlink="http://www.w3.org/1999/xlink">
	<desc>
			Created with Pixso.
	</desc>
	<defs>
		<clipPath id="clip1360_8584">
			<rect id="Icon / Sorting" width="24.000000" height="24.000000" fill="white" fill-opacity="0"/>
		</clipPath>
	</defs>
	<rect id="Icon / Sorting" width="24.000000" height="24.000000" fill="#FFFFFF" fill-opacity="0"/>
	<g clip-path="url(#clip1360_8584)">
		<path id="Shape" d="M11.12 11C11.12 11.17 11.05 11.34 10.93 11.47C10.8 11.59 10.63 11.66 10.46 11.66L4.46 11.66C4.28 11.66 4.11 11.59 3.98 11.47C3.86 11.34 3.79 11.17 3.79 11C3.79 10.82 3.86 10.65 3.98 10.52C4.11 10.4 4.28 10.33 4.46 10.33L10.46 10.33C10.63 10.33 10.8 10.4 10.93 10.52C11.05 10.65 11.12 10.82 11.12 11ZM4.46 6.33L15.79 6.33C15.97 6.33 16.14 6.26 16.26 6.13C16.39 6.01 16.46 5.84 16.46 5.66C16.46 5.48 16.39 5.32 16.26 5.19C16.14 5.07 15.97 5 15.79 5L4.46 5C4.28 5 4.11 5.07 3.98 5.19C3.86 5.32 3.79 5.48 3.79 5.66C3.79 5.84 3.86 6.01 3.98 6.13C4.11 6.26 4.28 6.33 4.46 6.33ZM9.12 15.66L4.46 15.66C4.28 15.66 4.11 15.73 3.98 15.86C3.86 15.98 3.79 16.15 3.79 16.33C3.79 16.51 3.86 16.67 3.98 16.8C4.11 16.92 4.28 17 4.46 17L9.12 17C9.3 17 9.47 16.92 9.59 16.8C9.72 16.67 9.79 16.51 9.79 16.33C9.79 16.15 9.72 15.98 9.59 15.86C9.47 15.73 9.3 15.66 9.12 15.66ZM19.74 14.07C19.69 13.95 19.6 13.85 19.49 13.77C19.38 13.7 19.25 13.66 19.12 13.66L16.46 13.66L16.46 9.66C16.46 9.48 16.39 9.32 16.26 9.19C16.14 9.07 15.97 9 15.79 9C15.61 9 15.44 9.07 15.32 9.19C15.19 9.32 15.12 9.48 15.12 9.66L15.12 13.66L12.46 13.66C12.32 13.66 12.19 13.7 12.09 13.77C11.98 13.85 11.89 13.95 11.84 14.07C11.79 14.2 11.78 14.33 11.8 14.46C11.83 14.59 11.89 14.71 11.98 14.8L15.32 18.13C15.38 18.2 15.45 18.24 15.53 18.28C15.61 18.31 15.7 18.33 15.79 18.33C15.88 18.33 15.96 18.31 16.04 18.28C16.13 18.24 16.2 18.2 16.26 18.13L19.59 14.8C19.69 14.71 19.75 14.59 19.78 14.46C19.8 14.33 19.79 14.2 19.74 14.07Z" fill="#21242F" fill-opacity="1.000000" fill-rule="evenodd"/>
	</g>
</svg>
