<svg width="24.000000" height="24.000000" viewBox="0 0 24 24" fill="none" xmlns="http://www.w3.org/2000/svg" xmlns:xlink="http://www.w3.org/1999/xlink">
	<desc>
			Created with Pixso.
	</desc>
	<defs>
		<clipPath id="clip171_4740">
			<rect id="Icon/Story" width="24.000000" height="24.000000" fill="white" fill-opacity="0"/>
		</clipPath>
	</defs>
	<g clip-path="url(#clip171_4740)">
		<path id="Shape" d="M8.9231 4L16.9231 4C17.2495 4 17.5625 4.12891 17.7935 4.35938C18.0242 4.58984 18.1538 4.90625 18.1538 5.23047L18.1538 16.9219C18.1538 17.0859 18.0891 17.2422 17.9736 17.3594C17.8582 17.4727 17.7017 17.5391 17.5386 17.5391C17.3752 17.5391 17.2188 17.4727 17.1033 17.3594C16.988 17.2422 16.9231 17.0859 16.9231 16.9219L16.9231 5.23047L8.9231 5.23047C8.76001 5.23047 8.60327 5.16406 8.48804 5.05078C8.37256 4.93359 8.30762 4.77734 8.30762 4.61719C8.30762 4.45312 8.37256 4.29688 8.48804 4.17969C8.60327 4.06641 8.76001 4 8.9231 4ZM14.4617 6.46094L7.0769 6.46094C6.75049 6.46094 6.4375 6.58984 6.20679 6.82031C5.97583 7.05469 5.84619 7.36719 5.84619 7.69141L5.84619 19.3828C5.84619 19.4961 5.87744 19.6094 5.93628 19.707C5.99512 19.8008 6.07935 19.8789 6.17993 19.9336C6.28052 19.9844 6.39331 20.0078 6.5061 20C6.6189 19.9883 6.72729 19.9492 6.81934 19.8867L10.7693 17.0625L14.72 19.8867C14.812 19.9492 14.9204 19.9883 15.033 19.9961C15.1455 20.0078 15.2583 19.9844 15.3586 19.9297C15.4592 19.8789 15.5435 19.8008 15.6023 19.7031C15.6611 19.6094 15.6921 19.4961 15.6924 19.3828L15.6924 7.69141C15.6924 7.36719 15.5627 7.05469 15.3318 6.82031C15.1011 6.58984 14.7881 6.46094 14.4617 6.46094Z" clip-rule="evenodd" fill="#8A90A4" fill-opacity="1.000000" fill-rule="evenodd"/>
	</g>
</svg>
