<svg width="24.000000" height="24.000000" viewBox="0 0 24 24" fill="none" xmlns="http://www.w3.org/2000/svg" xmlns:xlink="http://www.w3.org/1999/xlink">
	<desc>
			Created with Pixso.
	</desc>
	<defs>
		<clipPath id="clip8_7192">
			<rect id="Icon/Telegram" width="24.000000" height="24.000000" fill="white" fill-opacity="0"/>
		</clipPath>
	</defs>
	<g clip-path="url(#clip8_7192)">
		<path id="Shape" d="M19.77 4.63C19.68 4.56 19.58 4.51 19.46 4.49C19.35 4.47 19.23 4.48 19.12 4.52L4.64 10.19C4.44 10.27 4.26 10.41 4.15 10.6C4.03 10.78 3.98 11 4 11.22C4.02 11.44 4.11 11.65 4.26 11.81C4.4 11.98 4.6 12.09 4.82 12.13L8.57 12.87L8.57 17.05C8.57 17.28 8.63 17.5 8.76 17.69C8.89 17.88 9.07 18.02 9.28 18.11C9.49 18.19 9.72 18.21 9.95 18.17C10.17 18.12 10.37 18.01 10.53 17.84L12.34 15.97L15.21 18.48C15.42 18.66 15.68 18.76 15.96 18.76C16.08 18.76 16.2 18.74 16.32 18.71C16.51 18.65 16.68 18.54 16.81 18.39C16.94 18.25 17.04 18.07 17.08 17.88L19.98 5.26C20 5.15 20 5.03 19.96 4.92C19.93 4.81 19.86 4.71 19.77 4.63ZM15.96 17.62L10.06 12.44L18.56 6.35L15.96 17.62Z" fill="#00AFFF" fill-opacity="1.000000" fill-rule="nonzero"/>
	</g>
</svg>
