<svg width="24.000000" height="24.000000" viewBox="0 0 24 24" fill="none" xmlns="http://www.w3.org/2000/svg" xmlns:xlink="http://www.w3.org/1999/xlink">
	<desc>
			Created with Pixso.
	</desc>
	<defs>
		<clipPath id="clip8_7174">
			<rect id="Icon / TikTok" width="24.000000" height="24.000000" fill="white" fill-opacity="0"/>
		</clipPath>
	</defs>
	<rect id="Icon / TikTok" width="24.000000" height="24.000000" fill="#FFFFFF" fill-opacity="0"/>
	<g clip-path="url(#clip8_7174)">
		<path id="Shape" d="M19.7 8.74L19.7 11.7C19.7 11.86 19.64 12.01 19.53 12.12C19.41 12.23 19.26 12.29 19.11 12.29C17.87 12.29 16.65 12 15.55 11.42L15.55 14.37C15.55 15.86 14.96 17.29 13.9 18.35C12.85 19.4 11.41 20 9.92 20C8.43 20 7 19.4 5.94 18.35C4.88 17.29 4.29 15.86 4.29 14.37C4.29 11.63 6.28 9.22 8.93 8.74C9.01 8.73 9.1 8.73 9.18 8.76C9.27 8.78 9.35 8.82 9.41 8.87C9.48 8.93 9.53 9 9.57 9.08C9.61 9.16 9.62 9.24 9.62 9.33L9.62 12.49C9.62 12.6 9.59 12.71 9.53 12.81C9.47 12.9 9.39 12.98 9.29 13.03C9.05 13.14 8.84 13.32 8.69 13.54C8.55 13.75 8.46 14.01 8.44 14.27C8.43 14.54 8.48 14.8 8.6 15.04C8.72 15.28 8.9 15.47 9.13 15.62C9.35 15.76 9.61 15.84 9.88 15.85C10.14 15.85 10.4 15.79 10.64 15.66C10.87 15.53 11.06 15.35 11.2 15.12C11.33 14.89 11.4 14.63 11.4 14.37L11.4 4.59C11.4 4.43 11.46 4.28 11.58 4.17C11.69 4.06 11.84 4 12 4L14.96 4C15.12 4 15.27 4.06 15.38 4.17C15.49 4.28 15.55 4.43 15.55 4.59C15.55 5.53 15.93 6.43 16.59 7.1C17.26 7.77 18.16 8.14 19.11 8.14C19.26 8.14 19.41 8.21 19.53 8.32C19.64 8.43 19.7 8.58 19.7 8.74Z" fill="#00AFFF" fill-opacity="1.000000" fill-rule="evenodd"/>
	</g>
</svg>
