<svg width="24.000000" height="24.000000" viewBox="0 0 24 24" fill="none" xmlns="http://www.w3.org/2000/svg" xmlns:xlink="http://www.w3.org/1999/xlink">
	<desc>
			Created with Pixso.
	</desc>
	<defs>
		<clipPath id="clip13_3476">
			<rect id="Icon / Drop Down" width="24.000000" height="24.000000" fill="white" fill-opacity="0"/>
		</clipPath>
	</defs>
	<g clip-path="url(#clip13_3476)">
		<path id="Shape" d="M16.86 10.85L12.32 15.85C12.27 15.89 12.22 15.93 12.17 15.96C12.11 15.98 12.05 16 12 16C11.94 16 11.88 15.98 11.82 15.96C11.77 15.93 11.72 15.89 11.67 15.85L7.13 10.85C7.06 10.78 7.02 10.69 7 10.59C6.99 10.5 7 10.39 7.03 10.3C7.06 10.21 7.12 10.13 7.2 10.08C7.27 10.02 7.36 10 7.45 10L16.54 10C16.63 10 16.72 10.02 16.79 10.08C16.87 10.13 16.93 10.21 16.96 10.3C16.99 10.39 17 10.5 16.99 10.59C16.97 10.69 16.93 10.78 16.86 10.85Z" fill="#8A90A4" fill-opacity="1.000000" fill-rule="evenodd"/>
	</g>
</svg>
