<svg width="10.000000" height="6.000000" viewBox="0 0 10 6" fill="none" xmlns="http://www.w3.org/2000/svg" xmlns:xlink="http://www.w3.org/1999/xlink">
	<desc>
			Created with Pixso.
	</desc>
	<defs/>
	<path id="Shape" d="M9.86 0.85L5.32 5.85C5.27 5.89 5.22 5.93 5.17 5.96C5.11 5.98 5.05 6 5 6C4.94 6 4.88 5.98 4.82 5.96C4.77 5.93 4.72 5.89 4.67 5.85L0.13 0.85C0.06 0.78 0.02 0.69 0 0.59C-0.01 0.5 0 0.39 0.03 0.3C0.06 0.21 0.12 0.13 0.2 0.08C0.27 0.02 0.36 -6.11e-5 0.45 0L9.54 0C9.63 -6.11e-5 9.72 0.02 9.79 0.08C9.87 0.13 9.93 0.21 9.96 0.3C10 0.39 10 0.5 9.99 0.59C9.97 0.69 9.93 0.78 9.86 0.85Z" fill="#8A90A4" fill-opacity="1.000000" fill-rule="evenodd"/>
</svg>
