<svg width="24.000000" height="24.000000" viewBox="0 0 24 24" fill="none" xmlns="http://www.w3.org/2000/svg" xmlns:xlink="http://www.w3.org/1999/xlink">
	<desc>
			Created with Pixso.
	</desc>
	<defs>
		<clipPath id="clip8_7200">
			<rect id="Icon/Viber" width="24.000000" height="24.000000" fill="white" fill-opacity="0"/>
		</clipPath>
	</defs>
	<g clip-path="url(#clip8_7200)">
		<path id="Shape" d="M12.3824 4.01117C15.9725 4.03217 17.5681 5.20786 17.967 5.56476C19.2897 6.69849 20.0035 9.23883 19.4996 13.2698C19.0168 17.1538 16.0985 17.5317 15.5737 17.6997C15.3428 17.7836 13.3693 18.2665 10.8079 18.0566C10.5349 18.3925 10.1571 18.8124 9.88416 19.1063C9.78979 19.2046 9.70276 19.3021 9.62024 19.3947C9.26208 19.7963 8.98804 20.1036 8.56152 19.9671C8.1416 19.8411 8.1626 19.1903 8.1626 19.1903L8.1626 17.5737C4.40454 16.503 4.46753 12.619 4.50952 10.5405C4.55151 8.46204 4.95044 6.80347 6.1051 5.64874C8.1626 3.75922 12.3824 4.01117 12.3824 4.01117ZM15.1958 16.545C15.6367 16.419 18.009 16.209 18.408 12.9549C18.8069 9.61676 18.24 7.32831 17.1483 6.36258C16.8124 6.04764 15.3638 5.14487 12.3405 5.12387C12.3405 5.12387 8.75037 4.89294 7.00781 6.46753C6.04211 7.43329 5.72717 8.8399 5.68518 10.5825C5.68433 10.6547 5.68323 10.7296 5.68201 10.8069C5.6543 12.5958 5.60669 15.6788 8.64551 16.524C8.64551 16.524 8.62451 19.0013 8.62451 19.2113C8.62451 19.3583 8.64551 19.4633 8.72937 19.4843C8.79236 19.4843 8.87634 19.4633 8.96033 19.3793C9.48523 18.8544 11.1018 16.9019 11.1018 16.9019C13.2853 17.0278 15.0068 16.608 15.1958 16.545ZM15.7495 11.2125Q15.7495 9.80548 15.0925 8.8504L15.0925 8.8504Q14.9019 8.57324 14.656 8.33417Q14.2274 7.91754 13.7175 7.66537Q12.9357 7.27869 11.9626 7.27869C11.8494 7.27869 11.7604 7.18967 11.7604 7.07639C11.7604 6.9631 11.8494 6.87411 11.9626 6.87411Q13.0176 6.87411 13.871 7.28882Q14.451 7.57068 14.938 8.04413Q15.2404 8.33807 15.4675 8.6817Q16.1541 9.72015 16.1541 11.2125C16.1541 11.3257 16.0651 11.4148 15.9518 11.4148C15.8385 11.4148 15.7495 11.3257 15.7495 11.2125ZM13.1173 12.9969C12.9703 13.1859 12.6764 13.1649 12.6764 13.1649C10.5979 12.619 10.0731 10.5405 10.0731 10.5405C10.0731 10.5405 10.0521 10.2466 10.2411 10.0997L10.6189 9.80573C10.7869 9.65875 10.9128 9.30188 10.7239 8.96594C10.5979 8.77698 10.3879 8.4411 10.2411 8.23114C10.0731 8.00018 9.69519 7.5383 9.69519 7.5383C9.50623 7.30737 9.23328 7.26538 8.93933 7.41232C8.66638 7.58029 8.41455 7.79025 8.18359 8.04218C7.99463 8.25214 7.88965 8.4621 7.86865 8.672L7.86865 8.75598C7.86865 8.86096 7.88965 8.94495 7.91064 9.02893C7.99463 9.36487 8.22559 9.88971 8.70837 10.7715C9.02332 11.3383 9.35925 11.8212 9.67419 12.2201C9.84216 12.4301 10.0311 12.64 10.2621 12.871L10.3459 12.955C10.5559 13.1859 10.7869 13.3748 10.9968 13.5428C11.3958 13.8577 11.8787 14.1936 12.4454 14.5085C13.3483 14.9914 13.873 15.2224 14.188 15.3063C14.272 15.3273 14.377 15.3483 14.4609 15.3483L14.5449 15.3483C14.7549 15.3063 14.9648 15.2224 15.1748 15.0334C15.4478 14.8025 15.6576 14.5505 15.8046 14.2776C15.9515 13.9836 15.9095 13.7108 15.6786 13.5218C15.6786 13.5218 15.2168 13.1439 14.9858 12.9759C14.7759 12.808 14.4399 12.598 14.251 12.493C13.894 12.3041 13.5582 12.4301 13.4113 12.619L13.1173 12.9969ZM12.1598 8.08923C12.1509 8.20215 12.2327 8.29791 12.3456 8.30682Q13.296 8.38184 13.8918 8.88055Q14.0029 8.97363 14.1017 9.08136Q14.3147 9.3147 14.452 9.5863L14.4521 9.58649Q14.719 10.1144 14.6997 10.7868C14.6965 10.9 14.783 10.9916 14.8961 10.9948C15.0094 10.998 15.101 10.9116 15.1041 10.7983Q15.1208 10.2137 14.9403 9.70648Q14.8551 9.46692 14.7284 9.25177L14.728 9.25116L14.728 9.25116Q14.5891 9.0152 14.4005 8.80859Q14.2533 8.64801 14.0841 8.51544L14.084 8.51538L14.084 8.51538Q13.4067 7.98477 12.3774 7.9035C12.2645 7.89459 12.1687 7.97632 12.1598 8.08923ZM12.6235 9.39886C12.5104 9.39276 12.4263 9.29907 12.4324 9.18597C12.4386 9.07281 12.5322 8.98877 12.6454 8.99487Q13.2512 9.02765 13.6029 9.34344L13.6031 9.34363Q13.6349 9.37219 13.6646 9.40302Q14.0187 9.77087 14.0542 10.446C14.0601 10.5591 13.976 10.6526 13.8628 10.6586C13.7496 10.6646 13.6561 10.5804 13.6501 10.4672Q13.6226 9.94275 13.373 9.68359Q13.1251 9.42596 12.6235 9.39886Z" clip-rule="evenodd" fill="#00AFFF" fill-opacity="1.000000" fill-rule="evenodd"/>
	</g>
</svg>
