<svg width="40" height="34" viewBox="0 0 40 34" fill="none" xmlns="http://www.w3.org/2000/svg">
<g clip-path="url(#clip0_1256_362)">
<path d="M25.7185 17.0059C25.7185 21.6417 25.7066 26.2775 25.7185 30.9134C25.7185 32.1339 25.2663 33.0963 24.1595 33.6714C23.0527 34.2465 21.9935 34.047 20.9819 33.3428C17.9232 31.2185 14.8527 29.0942 11.7703 26.9935C11.5204 26.8174 11.4252 26.6531 11.4252 26.348C11.4371 20.116 11.4371 13.884 11.4252 7.65207C11.4252 7.3704 11.4966 7.20609 11.7346 7.04178C14.8527 4.89404 17.9708 2.7463 21.089 0.586827C22.0649 -0.082141 23.1003 -0.199504 24.1595 0.340365C25.2187 0.89197 25.7066 1.79566 25.7066 2.96929C25.7185 7.65207 25.7185 12.3348 25.7185 17.0059Z" fill="white"/>
<path d="M8.54508 25.3739C6.8551 25.3739 5.17703 25.503 3.53466 25.3387C1.58286 25.1509 0.0595066 23.367 0.0357041 21.4187C4.76296e-07 18.4729 4.76296e-07 15.5271 0.0357041 12.5696C0.0595066 10.4688 1.84469 8.66141 3.97501 8.56752C5.48646 8.50884 6.99792 8.56752 8.54508 8.56752C8.54508 14.1775 8.54508 19.7874 8.54508 25.3739Z" fill="white"/>
<path d="M40 17.4753C39.8929 22.3576 37.9054 26.9113 33.9304 30.6082C33.2877 31.2068 32.4308 31.2068 31.8596 30.6317C31.2764 30.0449 31.3121 29.1764 31.9786 28.5661C34.5016 26.2423 36.1797 23.4373 36.8105 20.0925C37.8459 14.5647 36.3106 9.77631 32.3118 5.76251C32.1809 5.62167 32.0262 5.50431 31.8953 5.36347C31.3121 4.77666 31.2883 3.91991 31.8477 3.35657C32.3951 2.80497 33.252 2.79323 33.859 3.3331C35.5608 4.85881 36.9295 6.63099 37.9649 8.66137C39.3097 11.2786 39.9762 14.0601 40 17.4753Z" fill="white"/>
<path d="M34.2874 17.4988C34.2398 19.9634 33.2282 22.5571 31.1693 24.7283C30.5266 25.3973 29.6459 25.4677 29.039 24.8927C28.432 24.3176 28.4439 23.496 29.0747 22.8153C32.2285 19.3883 32.2285 14.5882 29.0747 11.1847C28.432 10.4922 28.432 9.64723 29.0628 9.07215C29.6697 8.53229 30.5266 8.6027 31.1574 9.25993C33.1687 11.3373 34.2874 14.107 34.2874 17.4988Z" fill="white"/>
</g>
<defs>
<clipPath id="clip0_1256_362">
<rect width="40" height="34" fill="white"/>
</clipPath>
</defs>
</svg>
