<svg width="24.000000" height="24.000000" viewBox="0 0 24 24" fill="none" xmlns="http://www.w3.org/2000/svg" xmlns:xlink="http://www.w3.org/1999/xlink">
	<desc>
			Created with Pixso.
	</desc>
	<defs>
		<clipPath id="clip8_7180">
			<rect id="Icon / YouTube" width="24.000000" height="24.000000" fill="white" fill-opacity="0"/>
		</clipPath>
	</defs>
	<rect id="Icon / YouTube" width="24.000000" height="24.000000" fill="#FFFFFF" fill-opacity="0"/>
	<g clip-path="url(#clip8_7180)">
		<path id="Shape" d="M20.54 7.3C20.46 7 20.32 6.73 20.12 6.5C19.91 6.27 19.66 6.09 19.37 5.98C16.62 4.91 12.24 4.92 12 4.92C11.75 4.92 7.37 4.91 4.62 5.98C4.33 6.09 4.08 6.27 3.87 6.5C3.67 6.73 3.53 7 3.45 7.3C3.24 8.1 3 9.56 3 12C3 14.43 3.24 15.89 3.45 16.69C3.53 16.99 3.67 17.26 3.87 17.49C4.08 17.72 4.33 17.9 4.62 18.01C7.25 19.03 11.38 19.07 11.94 19.07L12.05 19.07C12.61 19.07 16.74 19.03 19.37 18.01C19.66 17.9 19.91 17.72 20.12 17.49C20.32 17.26 20.46 16.99 20.54 16.69C20.75 15.89 21 14.43 21 12C21 9.56 20.75 8.1 20.54 7.3ZM14.74 12.26L10.89 14.83C10.84 14.87 10.78 14.89 10.72 14.89C10.67 14.89 10.61 14.88 10.56 14.85C10.51 14.82 10.46 14.78 10.43 14.73C10.4 14.68 10.39 14.62 10.39 14.57L10.39 9.42C10.39 9.37 10.4 9.31 10.43 9.26C10.46 9.21 10.51 9.17 10.56 9.14C10.61 9.11 10.67 9.1 10.72 9.1C10.78 9.11 10.84 9.12 10.89 9.16L14.74 11.73C14.79 11.76 14.83 11.8 14.85 11.84C14.88 11.89 14.89 11.94 14.89 12C14.89 12.05 14.88 12.1 14.85 12.15C14.83 12.19 14.79 12.23 14.74 12.26Z" fill="#00AFFF" fill-opacity="1.000000" fill-rule="evenodd"/>
	</g>
</svg>
