<svg width="2.000000" height="2.000000" viewBox="0 0 24 24" fill="none" xmlns="http://www.w3.org/2000/svg" xmlns:xlink="http://www.w3.org/1999/xlink">
	<desc>
			Created with Pixso.
	</desc>
	<defs>
		<clipPath id="clip8_7171">
			<rect id="Icon/Instagram" width="2.000000" height="2.000000" fill="white" fill-opacity="0"/>
		</clipPath>
	</defs>
	<g clip-path="url(#clip8_7171)">
		<path id="Shape" d="M15.69 4L8.3 4C7.16 4 6.07 4.45 5.26 5.26C4.45 6.07 4 7.16 4 8.3L4 15.69C4 16.83 4.45 17.92 5.26 18.73C6.07 19.54 7.16 19.99 8.3 20L15.69 20C16.83 19.99 17.92 19.54 18.73 18.73C19.54 17.92 19.99 16.83 20 15.69L20 8.3C19.99 7.16 19.54 6.07 18.73 5.26C17.92 4.45 16.83 4 15.69 4ZM12 15.69C11.26 15.69 10.55 15.47 9.94 15.07C9.34 14.66 8.86 14.08 8.58 13.41C8.3 12.73 8.23 11.99 8.37 11.27C8.52 10.56 8.87 9.9 9.38 9.38C9.9 8.87 10.56 8.52 11.27 8.37C11.99 8.23 12.73 8.3 13.41 8.58C14.08 8.86 14.66 9.34 15.07 9.94C15.47 10.55 15.69 11.26 15.69 12C15.69 12.97 15.3 13.91 14.6 14.6C13.91 15.3 12.97 15.69 12 15.69ZM16.61 8.3C16.43 8.3 16.25 8.25 16.1 8.15C15.95 8.05 15.83 7.9 15.76 7.73C15.69 7.56 15.67 7.38 15.71 7.2C15.74 7.02 15.83 6.86 15.96 6.73C16.09 6.6 16.25 6.51 16.43 6.47C16.61 6.44 16.79 6.46 16.96 6.53C17.13 6.6 17.28 6.71 17.38 6.87C17.48 7.02 17.53 7.2 17.53 7.38C17.53 7.62 17.44 7.86 17.26 8.03C17.09 8.21 16.86 8.3 16.61 8.3ZM14.46 12C14.46 12.48 14.31 12.96 14.04 13.36C13.77 13.77 13.39 14.08 12.94 14.27C12.49 14.46 11.99 14.5 11.51 14.41C11.04 14.31 10.6 14.08 10.25 13.74C9.91 13.39 9.68 12.95 9.58 12.48C9.49 12 9.53 11.5 9.72 11.05C9.91 10.6 10.22 10.22 10.63 9.95C11.03 9.68 11.51 9.53 12 9.53C12.65 9.53 13.27 9.79 13.74 10.25C14.2 10.72 14.46 11.34 14.46 12Z" fill="#00AFFF" fill-opacity="1.000000" fill-rule="nonzero"/>
	</g>
</svg>
