<svg width="29" height="28" viewBox="0 0 29 28" fill="none" xmlns="http://www.w3.org/2000/svg">
<path d="M14.299 6.71777C10.3474 6.71777 7.07324 9.93551 7.07324 13.9436C7.07324 17.9516 10.291 21.1694 14.299 21.1694C18.3071 21.1694 21.5249 17.8952 21.5249 13.9436C21.5249 9.99197 18.2507 6.71777 14.299 6.71777ZM14.299 18.5726C11.7587 18.5726 9.67002 16.4839 9.67002 13.9436C9.67002 11.4033 11.7587 9.31455 14.299 9.31455C16.8394 9.31455 18.9281 11.4033 18.9281 13.9436C18.9281 16.4839 16.8394 18.5726 14.299 18.5726Z" fill="#1F2430"/>
<path d="M21.807 8.18545C22.7112 8.18545 23.4441 7.4525 23.4441 6.54835C23.4441 5.64421 22.7112 4.91125 21.807 4.91125C20.9029 4.91125 20.1699 5.64421 20.1699 6.54835C20.1699 7.4525 20.9029 8.18545 21.807 8.18545Z" fill="#1F2430"/>
<path d="M26.0408 2.31452C24.573 0.790322 22.4843 0 20.1133 0H8.48431C3.57302 0 0.298828 3.27419 0.298828 8.18548V19.7581C0.298828 22.1855 1.08915 24.2742 2.6698 25.7984C4.19399 27.2661 6.22625 28 8.54076 28H20.0569C22.4843 28 24.5166 27.2097 25.9843 25.7984C27.5085 24.3306 28.2988 22.2419 28.2988 19.8145V8.18548C28.2988 5.81452 27.5085 3.78226 26.0408 2.31452ZM25.815 19.8145C25.815 21.5645 25.194 22.9758 24.1779 23.9355C23.1617 24.8952 21.7504 25.4032 20.0569 25.4032H8.54076C6.84722 25.4032 5.43592 24.8952 4.4198 23.9355C3.40367 22.9194 2.8956 21.5081 2.8956 19.7581V8.18548C2.8956 6.49194 3.40367 5.08065 4.4198 4.06452C5.37947 3.10484 6.84722 2.59677 8.54076 2.59677H20.1698C21.8633 2.59677 23.2746 3.10484 24.2908 4.12097C25.2504 5.1371 25.815 6.54839 25.815 8.18548V19.8145Z" fill="#1F2430"/>
</svg>
