<svg width="29" height="29" viewBox="0 0 29 29" fill="none" xmlns="http://www.w3.org/2000/svg">
<path d="M26.0416 2.31744C24.5722 0.791758 22.4837 0.00390625 20.1139 0.00390625H8.48373C3.56904 0.00390625 0.298828 3.28037 0.298828 8.18881V19.7627C0.298828 22.1888 1.08668 24.2772 2.66864 25.8029C4.19432 27.2723 6.22647 28.0039 8.54001 28.0039H20.0576C22.4837 28.0039 24.5159 27.2161 25.9853 25.8029C27.511 24.3335 28.2988 22.2451 28.2988 19.819V8.18881C28.2988 5.819 27.5047 3.78059 26.0416 2.31744ZM25.8165 19.819C25.8165 21.5698 25.1974 22.9829 24.1782 23.9396C23.159 24.8963 21.7522 25.409 20.0576 25.409H8.53375C6.83925 25.409 5.42612 24.9025 4.41316 23.9396C3.39396 22.9204 2.88748 21.5135 2.88748 19.7627V8.18881C2.88748 6.4943 3.39396 5.08117 4.41316 4.06822C5.37609 3.10529 6.83925 2.59881 8.53375 2.59881H20.1639C21.8585 2.59881 23.2716 3.10529 24.2845 4.1245C25.2475 5.1437 25.8102 6.55058 25.8102 8.18881V19.819H25.8165Z" fill="#1F2430"/>
<path d="M19.1009 11.9654H15.8932V9.86449C15.8932 9.07664 16.4184 8.88905 16.7873 8.88905C17.1563 8.88905 19.0509 8.88905 19.0509 8.88905V5.41876L15.937 5.40625C12.4792 5.40625 11.6913 7.9949 11.6913 9.65189V11.9654H9.69043V15.542H11.6913C11.6913 20.1316 11.6913 25.659 11.6913 25.659H15.8995C15.8995 25.659 15.8995 20.0753 15.8995 15.542H18.7382L19.1009 11.9654Z" fill="#1F2430"/>
</svg>
