<svg width="140.000000" height="40.000000" viewBox="0 0 140 40" fill="none" xmlns="http://www.w3.org/2000/svg" xmlns:xlink="http://www.w3.org/1999/xlink">
	<desc>
			Created with Pixso.
	</desc>
	<defs>
		<clipPath id="clip8_3909">
			<rect id="Dark=False" width="139.591843" height="40.000004" fill="white" fill-opacity="0"/>
		</clipPath>
	</defs>
	<rect id="Dark=False" width="139.591843" height="40.000004" fill="#FFFFFF" fill-opacity="0"/>
	<g clip-path="url(#clip8_3909)">
		<path id="Vector" d="M44.9 4.43L44.9 9.99L55.27 9.99L55.27 13.66L44.9 13.66L44.9 20.87L40.46 20.87L40.46 0.36L56.46 0.36L56.46 4.43L44.9 4.43Z" fill="#FFFFFF" fill-opacity="1.000000" fill-rule="nonzero"/>
		<path id="Vector" d="M37.9 16.8L37.9 20.87L22.28 20.87L22.28 0.36L26.77 0.36L26.77 16.8L37.9 16.8Z" fill="#FFFFFF" fill-opacity="1.000000" fill-rule="nonzero"/>
		<path id="Vector" d="M18.09 0.36L18.09 13.41C18.09 15.73 17.26 17.62 15.59 19.08C13.92 20.56 11.79 21.29 9.22 21.29C6.62 21.29 4.5 20.56 2.83 19.08C1.16 17.61 0.31 15.71 0.31 13.41L0.31 0.36L4.8 0.36L4.8 13.41C4.8 14.54 5.21 15.45 6.03 16.15C6.85 16.85 7.92 17.21 9.22 17.21C10.52 17.21 11.59 16.85 12.41 16.15C13.23 15.45 13.64 14.53 13.64 13.41L13.64 0.36L18.09 0.36Z" fill="#FFFFFF" fill-opacity="1.000000" fill-rule="nonzero"/>
		<path id="Vector" d="M121.18 2.99C123.16 1 125.66 0 128.67 0C131.69 0 134.18 1 136.15 2.99C138.12 5 139.09 7.55 139.09 10.62C139.09 13.72 138.11 16.27 136.15 18.27C134.18 20.27 131.69 21.27 128.67 21.27C125.64 21.27 123.15 20.27 121.18 18.27C119.21 16.28 118.23 13.73 118.23 10.62C118.23 7.54 119.21 4.99 121.18 2.99ZM122.7 10.62C122.7 12.53 123.25 14.11 124.36 15.35C125.47 16.59 126.9 17.21 128.66 17.21C130.41 17.21 131.84 16.59 132.96 15.35C134.07 14.11 134.63 12.54 134.63 10.62C134.63 8.7 134.07 7.13 132.96 5.9C131.85 4.66 130.42 4.04 128.66 4.04C126.91 4.04 125.48 4.66 124.36 5.9C123.25 7.14 122.7 8.71 122.7 10.62Z" fill="#FFFFFF" fill-opacity="1.000000" fill-rule="nonzero"/>
		<path id="Vector" d="M56.12 20.87L64.27 0.4L69.21 0.4L77.4 20.87L72.36 20.87L71.09 17.39L62.44 17.39L61.19 20.87L56.12 20.87ZM66.81 5.59L66.69 5.59L63.71 13.79L69.8 13.79L66.81 5.59Z" fill="#FFFFFF" fill-opacity="1.000000" fill-rule="nonzero"/>
		<path id="Vector" d="M94.49 19.08C92.82 20.55 90.71 21.28 88.14 21.28C85.55 21.28 83.42 20.55 81.76 19.08C80.08 17.61 79.25 15.72 79.25 13.42L79.25 0.4L83.73 0.4L83.73 13.42C83.73 14.54 84.14 15.46 84.96 16.16C85.78 16.86 86.84 17.22 88.14 17.22C89.44 17.22 90.51 16.86 91.32 16.16C92.14 15.46 92.55 14.54 92.55 13.42L92.55 0.4L96.98 0.4L96.98 13.42C96.98 15.73 96.15 17.62 94.49 19.08Z" fill="#FFFFFF" fill-opacity="1.000000" fill-rule="nonzero"/>
		<path id="Vector" d="M110.1 20.87L105.63 20.87L105.63 4.47L99.44 4.47L99.44 0.4L116.31 0.4L116.31 4.47L110.1 4.47L110.1 20.87Z" fill="#FFFFFF" fill-opacity="1.000000" fill-rule="nonzero"/>
		<path id="Vector" d="M57.71 38.52L59.6 38.52L59.6 39.91L56.12 39.91L56.12 26.61L59.6 26.61L59.6 28L57.71 28L57.71 38.52Z" fill="#FFFFFF" fill-opacity="1.000000" fill-rule="nonzero"/>
		<path id="Vector" d="M65.26 30.34L72.02 30.34L72.02 37.6L70.31 37.6L70.31 31.78L66.97 31.78L66.97 37.6L65.26 37.6L65.26 30.34Z" fill="#FFFFFF" fill-opacity="1.000000" fill-rule="nonzero"/>
		<path id="Vector" d="M75 28.46C74.7 28.46 74.45 28.36 74.25 28.14C74.03 27.93 73.93 27.67 73.93 27.39C73.93 27.1 74.03 26.84 74.25 26.65C74.46 26.45 74.72 26.34 75 26.34C75.28 26.34 75.54 26.45 75.76 26.65C75.97 26.85 76.08 27.1 76.08 27.39C76.08 27.67 75.97 27.93 75.76 28.14C75.54 28.36 75.29 28.46 75 28.46ZM75.83 37.6L74.12 37.6L74.12 30.34L75.83 30.34L75.83 37.6Z" fill="#FFFFFF" fill-opacity="1.000000" fill-rule="nonzero"/>
		<path id="Vector" d="M79.38 37.6L79.32 39.94L78.1 39.94L77.98 36.16L78.75 36.16C79.46 35.86 79.82 34.98 79.82 33.52L79.82 30.34L85.5 30.34L85.5 36.16L86.32 36.16L86.21 39.94L84.97 39.94L84.92 37.6L79.38 37.6ZM83.83 31.77L81.48 31.77L81.48 33.45C81.48 34.59 81.34 35.47 81.05 36.11L81.05 36.16L83.82 36.16L83.82 31.77L83.83 31.77Z" fill="#FFFFFF" fill-opacity="1.000000" fill-rule="nonzero"/>
		<path id="Vector" d="M88.22 30.34L94.98 30.34L94.98 37.6L93.27 37.6L93.27 31.78L89.93 31.78L89.93 37.6L88.22 37.6L88.22 30.34Z" fill="#FFFFFF" fill-opacity="1.000000" fill-rule="nonzero"/>
		<path id="Vector" d="M98.64 35L102.49 30.34L103.96 30.34L103.96 37.6L102.27 37.6L102.27 32.94L102.21 32.94L98.35 37.6L96.89 37.6L96.89 30.34L98.58 30.34L98.58 35L98.64 35Z" fill="#FFFFFF" fill-opacity="1.000000" fill-rule="nonzero"/>
		<path id="Vector" d="M110.25 36.18C111.07 36.18 111.77 35.99 112.36 35.61L112.54 37.25C111.83 37.62 111.06 37.79 110.22 37.79C108.97 37.79 107.93 37.43 107.11 36.71C106.29 36 105.88 35.09 105.88 33.97C105.88 32.85 106.29 31.93 107.09 31.21C107.9 30.49 108.92 30.13 110.17 30.13C111.06 30.13 111.78 30.29 112.36 30.62L111.94 32.13C111.46 31.89 110.89 31.75 110.23 31.73C109.47 31.73 108.85 31.94 108.36 32.36C107.87 32.77 107.62 33.32 107.62 33.97C107.62 34.59 107.88 35.1 108.38 35.53C108.87 35.96 109.5 36.18 110.25 36.18Z" fill="#FFFFFF" fill-opacity="1.000000" fill-rule="nonzero"/>
		<path id="Vector" d="M119.33 30.34L121.27 30.34L118.41 33.31L121.58 37.6L119.74 37.6L117.33 34.46L116.15 35.68L116.15 37.6L114.44 37.6L114.44 30.34L116.15 30.34L116.15 33.61L116.2 33.61L119.33 30.34Z" fill="#FFFFFF" fill-opacity="1.000000" fill-rule="nonzero"/>
		<path id="Vector" d="M123.49 35.44C123.49 34.72 123.77 34.13 124.33 33.68C124.9 33.23 125.74 33 126.87 33C127.59 33 128.25 33.09 128.86 33.28C128.86 32.24 128.17 31.73 126.8 31.73C126.44 31.73 126.08 31.77 125.7 31.86C125.34 31.94 125.04 32.02 124.81 32.1L124.49 32.23L123.99 30.81C124.01 30.79 124.06 30.76 124.17 30.71C124.27 30.67 124.44 30.61 124.68 30.52C124.93 30.45 125.19 30.36 125.48 30.3C125.98 30.18 126.46 30.13 126.91 30.13C128.17 30.13 129.09 30.38 129.68 30.91C130.26 31.43 130.55 32.26 130.55 33.4L130.55 37.6L129.69 37.6L129.21 36.48L129.2 36.48C128.65 37.34 127.72 37.78 126.41 37.78C125.55 37.78 124.84 37.55 124.3 37.12C123.76 36.69 123.49 36.12 123.49 35.44ZM128.78 34.62L128.78 34.45C128.32 34.29 127.79 34.2 127.16 34.2C126.52 34.2 126.04 34.31 125.71 34.52C125.37 34.75 125.2 35.03 125.2 35.34C125.2 35.69 125.34 35.96 125.6 36.16C125.88 36.36 126.26 36.45 126.79 36.45C127.35 36.45 127.83 36.26 128.21 35.88C128.6 35.5 128.78 35.09 128.78 34.62Z" fill="#FFFFFF" fill-opacity="1.000000" fill-rule="nonzero"/>
		<path id="Vector" d="M139.08 39.91L135.6 39.91L135.6 38.52L137.48 38.52L137.48 28.01L135.6 28.01L135.6 26.62L139.08 26.62L139.08 39.91Z" fill="#FFFFFF" fill-opacity="1.000000" fill-rule="nonzero"/>
	</g>
</svg>
