<svg width="154.000000" height="44.000000" viewBox="0 0 154 44" fill="none" xmlns="http://www.w3.org/2000/svg" xmlns:xlink="http://www.w3.org/1999/xlink">
	<desc>
			Created with Pixso.
	</desc>
	<defs>
		<clipPath id="clip1180_5017">
			<rect id="Logo" width="154.000000" height="44.000000" fill="white" fill-opacity="0"/>
		</clipPath>
	</defs>
	<rect id="Logo" width="154.000000" height="44.000000" fill="#FFFFFF" fill-opacity="0"/>
	<g clip-path="url(#clip1180_5017)">
		<path id="Vector" d="M49.54 4.88L49.54 10.99L60.98 10.99L60.98 15.03L49.54 15.03L49.54 22.95L44.64 22.95L44.64 0.39L62.29 0.39L62.29 4.88L49.54 4.88Z" fill="#00AFFF" fill-opacity="1.000000" fill-rule="nonzero"/>
		<path id="Vector" d="M41.82 18.48L41.82 22.95L24.58 22.95L24.58 0.39L29.54 0.39L29.54 18.48L41.82 18.48Z" fill="#00AFFF" fill-opacity="1.000000" fill-rule="nonzero"/>
		<path id="Vector" d="M19.96 0.39L19.96 14.75C19.96 17.31 19.04 19.38 17.2 20.99C15.35 22.61 13.01 23.42 10.17 23.42C7.3 23.42 4.96 22.61 3.12 20.99C1.28 19.37 0.35 17.28 0.35 14.75L0.35 0.39L5.3 0.39L5.3 14.75C5.3 15.99 5.75 16.99 6.65 17.77C7.56 18.54 8.74 18.93 10.17 18.93C11.61 18.93 12.79 18.54 13.69 17.77C14.6 16.99 15.05 15.98 15.05 14.75L15.05 0.39L19.96 0.39Z" fill="#00AFFF" fill-opacity="1.000000" fill-rule="nonzero"/>
		<path id="Vector" d="M133.69 3.29C135.87 1.1 138.63 0 141.96 0C145.29 0 148.03 1.1 150.21 3.29C152.37 5.5 153.45 8.3 153.45 11.69C153.45 15.09 152.36 17.89 150.21 20.1C148.03 22.3 145.29 23.4 141.96 23.4C138.61 23.4 135.86 22.3 133.69 20.1C131.52 17.91 130.43 15.1 130.43 11.69C130.43 8.29 131.52 5.49 133.69 3.29ZM135.36 11.69C135.36 13.79 135.98 15.52 137.2 16.88C138.42 18.25 140 18.93 141.94 18.93C143.87 18.93 145.45 18.25 146.69 16.88C147.91 15.52 148.52 13.8 148.52 11.69C148.52 9.57 147.91 7.85 146.69 6.49C145.46 5.12 143.89 4.44 141.94 4.44C140.01 4.44 138.44 5.12 137.2 6.49C135.98 7.86 135.36 9.58 135.36 11.69Z" fill="#000000" fill-opacity="1.000000" fill-rule="nonzero"/>
		<path id="Vector" d="M61.91 22.95L70.9 0.44L76.35 0.44L85.39 22.95L79.83 22.95L78.43 19.13L68.89 19.13L67.5 22.95L61.91 22.95ZM73.7 6.15L73.58 6.15L70.29 15.17L77 15.17L73.7 6.15Z" fill="#000000" fill-opacity="1.000000" fill-rule="nonzero"/>
		<path id="Vector" d="M104.24 20.99C102.4 22.6 100.07 23.41 97.24 23.41C94.38 23.41 92.03 22.6 90.2 20.99C88.35 19.37 87.43 17.3 87.43 14.76L87.43 0.44L92.37 0.44L92.37 14.76C92.37 15.99 92.82 17 93.73 17.78C94.63 18.55 95.8 18.94 97.24 18.94C98.67 18.94 99.85 18.55 100.74 17.78C101.65 17 102.1 15.99 102.1 14.76L102.1 0.44L106.99 0.44L106.99 14.76C106.99 17.31 106.08 19.38 104.24 20.99Z" fill="#000000" fill-opacity="1.000000" fill-rule="nonzero"/>
		<path id="Vector" d="M121.46 22.95L116.53 22.95L116.53 4.91L109.7 4.91L109.7 0.44L128.31 0.44L128.31 4.91L121.46 4.91L121.46 22.95Z" fill="#000000" fill-opacity="1.000000" fill-rule="nonzero"/>
		<path id="Vector" d="M63.66 42.38L65.75 42.38L65.75 43.9L61.91 43.9L61.91 29.27L65.75 29.27L65.75 30.8L63.66 30.8L63.66 42.38Z" fill="#00AFFF" fill-opacity="1.000000" fill-rule="nonzero"/>
		<path id="Vector" d="M72 33.38L79.45 33.38L79.45 41.36L77.57 41.36L77.57 34.96L73.88 34.96L73.88 41.36L72 41.36L72 33.38Z" fill="#000000" fill-opacity="1.000000" fill-rule="nonzero"/>
		<path id="Vector" d="M82.75 31.31C82.42 31.31 82.13 31.19 81.91 30.96C81.67 30.72 81.56 30.44 81.56 30.12C81.56 29.81 81.67 29.53 81.91 29.31C82.15 29.09 82.43 28.97 82.75 28.97C83.05 28.97 83.33 29.09 83.58 29.31C83.82 29.54 83.93 29.81 83.93 30.12C83.93 30.44 83.82 30.72 83.58 30.96C83.33 31.19 83.06 31.31 82.75 31.31ZM83.65 41.36L81.77 41.36L81.77 33.38L83.65 33.38L83.65 41.36Z" fill="#000000" fill-opacity="1.000000" fill-rule="nonzero"/>
		<path id="Vector" d="M87.57 41.36L87.51 43.94L86.16 43.94L86.03 39.77L86.88 39.77C87.67 39.44 88.05 38.48 88.05 36.87L88.05 33.38L94.33 33.38L94.33 39.77L95.23 39.77L95.11 43.94L93.74 43.94L93.68 41.36L87.57 41.36ZM92.48 34.95L89.89 34.95L89.89 36.79C89.89 38.05 89.74 39.02 89.42 39.73L89.42 39.77L92.47 39.77L92.47 34.95L92.48 34.95Z" fill="#000000" fill-opacity="1.000000" fill-rule="nonzero"/>
		<path id="Vector" d="M97.33 33.38L104.78 33.38L104.78 41.36L102.9 41.36L102.9 34.96L99.21 34.96L99.21 41.36L97.33 41.36L97.33 33.38Z" fill="#000000" fill-opacity="1.000000" fill-rule="nonzero"/>
		<path id="Vector" d="M108.82 38.5L113.07 33.38L114.69 33.38L114.69 41.36L112.82 41.36L112.82 36.24L112.76 36.24L108.5 41.36L106.89 41.36L106.89 33.38L108.76 33.38L108.76 38.5L108.82 38.5Z" fill="#000000" fill-opacity="1.000000" fill-rule="nonzero"/>
		<path id="Vector" d="M121.63 39.8C122.53 39.8 123.31 39.58 123.96 39.17L124.16 40.98C123.37 41.38 122.52 41.57 121.59 41.57C120.21 41.57 119.07 41.17 118.17 40.38C117.26 39.6 116.81 38.6 116.81 37.37C116.81 36.13 117.26 35.12 118.14 34.33C119.04 33.54 120.17 33.14 121.54 33.14C122.52 33.14 123.32 33.32 123.96 33.68L123.5 35.35C122.97 35.08 122.33 34.92 121.6 34.9C120.77 34.9 120.08 35.14 119.54 35.59C119 36.05 118.73 36.65 118.73 37.37C118.73 38.05 119.01 38.61 119.57 39.08C120.11 39.56 120.8 39.8 121.63 39.8Z" fill="#000000" fill-opacity="1.000000" fill-rule="nonzero"/>
		<path id="Vector" d="M131.64 33.38L133.79 33.38L130.63 36.64L134.13 41.36L132.1 41.36L129.44 37.91L128.14 39.24L128.14 41.36L126.25 41.36L126.25 33.38L128.14 33.38L128.14 36.97L128.2 36.97L131.64 33.38Z" fill="#000000" fill-opacity="1.000000" fill-rule="nonzero"/>
		<path id="Vector" d="M136.24 38.99C136.24 38.19 136.54 37.54 137.17 37.05C137.79 36.56 138.72 36.3 139.97 36.3C140.75 36.3 141.49 36.4 142.16 36.6C142.16 35.46 141.4 34.9 139.88 34.9C139.5 34.9 139.1 34.95 138.67 35.04C138.27 35.14 137.94 35.22 137.69 35.31L137.34 35.45L136.79 33.89C136.81 33.87 136.87 33.83 136.99 33.79C137.09 33.74 137.28 33.67 137.55 33.57C137.82 33.49 138.11 33.4 138.44 33.33C138.98 33.2 139.51 33.14 140.01 33.14C141.4 33.14 142.42 33.42 143.06 34C143.71 34.57 144.03 35.49 144.03 36.74L144.03 41.36L143.07 41.36L142.54 40.12L142.53 40.12C141.93 41.07 140.91 41.56 139.46 41.56C138.51 41.56 137.73 41.31 137.13 40.83C136.53 40.36 136.24 39.74 136.24 38.99ZM142.07 38.08L142.07 37.89C141.57 37.72 140.98 37.62 140.28 37.62C139.58 37.62 139.05 37.74 138.68 37.98C138.31 38.22 138.12 38.53 138.12 38.88C138.12 39.26 138.27 39.56 138.57 39.77C138.87 40 139.3 40.1 139.87 40.1C140.5 40.1 141.03 39.89 141.44 39.47C141.87 39.06 142.07 38.6 142.07 38.08Z" fill="#000000" fill-opacity="1.000000" fill-rule="nonzero"/>
		<path id="Vector" d="M153.43 43.9L149.6 43.9L149.6 42.38L151.67 42.38L151.67 30.82L149.6 30.82L149.6 29.28L153.43 29.28L153.43 43.9Z" fill="#00AFFF" fill-opacity="1.000000" fill-rule="nonzero"/>
	</g>
</svg>
